999
FBX AutoCAD (*.DXF) exporter
  0
SECTION
  2
HEADER
  9
$ACADVER
  1
AC1008
  9
$UCSORG
 10
0.0
 20
0.0
 30
0.0
  9
$UCSXDIR
 10
1.0
 20
0.0
 30
0.0
  9
$TILEMODE
 70
   1
  9
$UCSYDIR
 10
0.0
 20
1.0
 30
0.0
  0
ENDSEC
  0
SECTION
  2
TABLES
  0
TABLE
  2
LTYPE
 70
   1
  0
LTYPE
  2
CONTINUOUS
 70
   64
  3
Solid line
 72
   65
 73
   0
 40
0.0
  0
ENDTAB
  0
TABLE
  2
LAYER
 70
   1
  0
LAYER
  2
g0
 70
   0
 62
   2
  6
CONTINUOUS
  0
ENDTAB
  0
ENDSEC
  0
SECTION
  2
BLOCKS
  0
ENDSEC
  0
SECTION
  2
ENTITIES
  0
POLYLINE
  8
g0
 62
   2
 66
   1
 10
0.0
 20
0.0
 30
0.0
 70
   64
 71
   32
 72
   60
  0
VERTEX
  8
g0
 10
-0.002813
 20
0.305077
 30
0.000000
 70
   192
  0
VERTEX
  8
g0
 10
0.009562
 20
0.298437
 30
-0.021434
 70
   192
  0
VERTEX
  8
g0
 10
-0.015188
 20
0.298437
 30
-0.021434
 70
   192
  0
VERTEX
  8
g0
 10
-0.027563
 20
0.298437
 30
-0.000000
 70
   192
  0
VERTEX
  8
g0
 10
-0.015188
 20
0.298437
 30
0.021434
 70
   192
  0
VERTEX
  8
g0
 10
0.009562
 20
0.298437
 30
0.021434
 70
   192
  0
VERTEX
  8
g0
 10
0.021938
 20
0.298437
 30
0.000000
 70
   192
  0
VERTEX
  8
g0
 10
0.018622
 20
0.280317
 30
-0.037125
 70
   192
  0
VERTEX
  8
g0
 10
-0.024247
 20
0.280317
 30
-0.037125
 70
   192
  0
VERTEX
  8
g0
 10
-0.045681
 20
0.280317
 30
-0.000000
 70
   192
  0
VERTEX
  8
g0
 10
-0.024247
 20
0.280317
 30
0.037125
 70
   192
  0
VERTEX
  8
g0
 10
0.018622
 20
0.280317
 30
0.037125
 70
   192
  0
VERTEX
  8
g0
 10
0.040056
 20
0.280317
 30
0.000000
 70
   192
  0
VERTEX
  8
g0
 10
0.021938
 20
0.255569
 30
-0.042868
 70
   192
  0
VERTEX
  8
g0
 10
-0.027563
 20
0.255569
 30
-0.042868
 70
   192
  0
VERTEX
  8
g0
 10
-0.052313
 20
0.255569
 30
-0.000000
 70
   192
  0
VERTEX
  8
g0
 10
-0.027563
 20
0.255569
 30
0.042868
 70
   192
  0
VERTEX
  8
g0
 10
0.021938
 20
0.255569
 30
0.042868
 70
   192
  0
VERTEX
  8
g0
 10
0.046687
 20
0.255569
 30
0.000000
 70
   192
  0
VERTEX
  8
g0
 10
0.018622
 20
0.230821
 30
-0.037125
 70
   192
  0
VERTEX
  8
g0
 10
-0.024247
 20
0.230821
 30
-0.037125
 70
   192
  0
VERTEX
  8
g0
 10
-0.045681
 20
0.230821
 30
-0.000000
 70
   192
  0
VERTEX
  8
g0
 10
-0.024247
 20
0.230821
 30
0.037125
 70
   192
  0
VERTEX
  8
g0
 10
0.018622
 20
0.230821
 30
0.037125
 70
   192
  0
VERTEX
  8
g0
 10
0.040056
 20
0.230821
 30
0.000000
 70
   192
  0
VERTEX
  8
g0
 10
0.009562
 20
0.212701
 30
-0.021434
 70
   192
  0
VERTEX
  8
g0
 10
-0.015188
 20
0.212701
 30
-0.021434
 70
   192
  0
VERTEX
  8
g0
 10
-0.027563
 20
0.212701
 30
-0.000000
 70
   192
  0
VERTEX
  8
g0
 10
-0.015188
 20
0.212701
 30
0.021434
 70
   192
  0
VERTEX
  8
g0
 10
0.009562
 20
0.212701
 30
0.021434
 70
   192
  0
VERTEX
  8
g0
 10
0.021938
 20
0.212701
 30
0.000000
 70
   192
  0
VERTEX
  8
g0
 10
-0.000024
 20
-0.000051
 30
-0.000000
 70
   192
  0
VERTEX
  8
g0
 62
   2
 10
0.0
 20
0.0
 30
0.0
 70
   128
 71
   2
 72
   7
 73
   1
  0
VERTEX
  8
g0
 62
   2
 10
0.0
 20
0.0
 30
0.0
 70
   128
 71
   3
 72
   2
 73
   1
  0
VERTEX
  8
g0
 62
   2
 10
0.0
 20
0.0
 30
0.0
 70
   128
 71
   4
 72
   3
 73
   1
  0
VERTEX
  8
g0
 62
   2
 10
0.0
 20
0.0
 30
0.0
 70
   128
 71
   5
 72
   4
 73
   1
  0
VERTEX
  8
g0
 62
   2
 10
0.0
 20
0.0
 30
0.0
 70
   128
 71
   6
 72
   5
 73
   1
  0
VERTEX
  8
g0
 62
   2
 10
0.0
 20
0.0
 30
0.0
 70
   128
 71
   7
 72
   6
 73
   1
  0
VERTEX
  8
g0
 62
   2
 10
0.0
 20
0.0
 30
0.0
 70
   128
 71
   31
 72
   26
 73
   32
  0
VERTEX
  8
g0
 62
   2
 10
0.0
 20
0.0
 30
0.0
 70
   128
 71
   26
 72
   27
 73
   32
  0
VERTEX
  8
g0
 62
   2
 10
0.0
 20
0.0
 30
0.0
 70
   128
 71
   27
 72
   28
 73
   32
  0
VERTEX
  8
g0
 62
   2
 10
0.0
 20
0.0
 30
0.0
 70
   128
 71
   28
 72
   29
 73
   32
  0
VERTEX
  8
g0
 62
   2
 10
0.0
 20
0.0
 30
0.0
 70
   128
 71
   29
 72
   30
 73
   32
  0
VERTEX
  8
g0
 62
   2
 10
0.0
 20
0.0
 30
0.0
 70
   128
 71
   30
 72
   31
 73
   32
  0
VERTEX
  8
g0
 62
   2
 10
0.0
 20
0.0
 30
0.0
 70
   128
 71
   7
 72
   2
 73
   8
  0
VERTEX
  8
g0
 62
   2
 10
0.0
 20
0.0
 30
0.0
 70
   128
 71
   13
 72
   7
 73
   8
  0
VERTEX
  8
g0
 62
   2
 10
0.0
 20
0.0
 30
0.0
 70
   128
 71
   2
 72
   3
 73
   9
  0
VERTEX
  8
g0
 62
   2
 10
0.0
 20
0.0
 30
0.0
 70
   128
 71
   8
 72
   2
 73
   9
  0
VERTEX
  8
g0
 62
   2
 10
0.0
 20
0.0
 30
0.0
 70
   128
 71
   3
 72
   4
 73
   10
  0
VERTEX
  8
g0
 62
   2
 10
0.0
 20
0.0
 30
0.0
 70
   128
 71
   9
 72
   3
 73
   10
  0
VERTEX
  8
g0
 62
   2
 10
0.0
 20
0.0
 30
0.0
 70
   128
 71
   4
 72
   5
 73
   11
  0
VERTEX
  8
g0
 62
   2
 10
0.0
 20
0.0
 30
0.0
 70
   128
 71
   10
 72
   4
 73
   11
  0
VERTEX
  8
g0
 62
   2
 10
0.0
 20
0.0
 30
0.0
 70
   128
 71
   5
 72
   6
 73
   12
  0
VERTEX
  8
g0
 62
   2
 10
0.0
 20
0.0
 30
0.0
 70
   128
 71
   11
 72
   5
 73
   12
  0
VERTEX
  8
g0
 62
   2
 10
0.0
 20
0.0
 30
0.0
 70
   128
 71
   6
 72
   7
 73
   13
  0
VERTEX
  8
g0
 62
   2
 10
0.0
 20
0.0
 30
0.0
 70
   128
 71
   12
 72
   6
 73
   13
  0
VERTEX
  8
g0
 62
   2
 10
0.0
 20
0.0
 30
0.0
 70
   128
 71
   13
 72
   8
 73
   14
  0
VERTEX
  8
g0
 62
   2
 10
0.0
 20
0.0
 30
0.0
 70
   128
 71
   19
 72
   13
 73
   14
  0
VERTEX
  8
g0
 62
   2
 10
0.0
 20
0.0
 30
0.0
 70
   128
 71
   8
 72
   9
 73
   15
  0
VERTEX
  8
g0
 62
   2
 10
0.0
 20
0.0
 30
0.0
 70
   128
 71
   14
 72
   8
 73
   15
  0
VERTEX
  8
g0
 62
   2
 10
0.0
 20
0.0
 30
0.0
 70
   128
 71
   9
 72
   10
 73
   16
  0
VERTEX
  8
g0
 62
   2
 10
0.0
 20
0.0
 30
0.0
 70
   128
 71
   15
 72
   9
 73
   16
  0
VERTEX
  8
g0
 62
   2
 10
0.0
 20
0.0
 30
0.0
 70
   128
 71
   10
 72
   11
 73
   17
  0
VERTEX
  8
g0
 62
   2
 10
0.0
 20
0.0
 30
0.0
 70
   128
 71
   16
 72
   10
 73
   17
  0
VERTEX
  8
g0
 62
   2
 10
0.0
 20
0.0
 30
0.0
 70
   128
 71
   11
 72
   12
 73
   18
  0
VERTEX
  8
g0
 62
   2
 10
0.0
 20
0.0
 30
0.0
 70
   128
 71
   17
 72
   11
 73
   18
  0
VERTEX
  8
g0
 62
   2
 10
0.0
 20
0.0
 30
0.0
 70
   128
 71
   12
 72
   13
 73
   19
  0
VERTEX
  8
g0
 62
   2
 10
0.0
 20
0.0
 30
0.0
 70
   128
 71
   18
 72
   12
 73
   19
  0
VERTEX
  8
g0
 62
   2
 10
0.0
 20
0.0
 30
0.0
 70
   128
 71
   19
 72
   14
 73
   20
  0
VERTEX
  8
g0
 62
   2
 10
0.0
 20
0.0
 30
0.0
 70
   128
 71
   25
 72
   19
 73
   20
  0
VERTEX
  8
g0
 62
   2
 10
0.0
 20
0.0
 30
0.0
 70
   128
 71
   14
 72
   15
 73
   21
  0
VERTEX
  8
g0
 62
   2
 10
0.0
 20
0.0
 30
0.0
 70
   128
 71
   20
 72
   14
 73
   21
  0
VERTEX
  8
g0
 62
   2
 10
0.0
 20
0.0
 30
0.0
 70
   128
 71
   15
 72
   16
 73
   22
  0
VERTEX
  8
g0
 62
   2
 10
0.0
 20
0.0
 30
0.0
 70
   128
 71
   21
 72
   15
 73
   22
  0
VERTEX
  8
g0
 62
   2
 10
0.0
 20
0.0
 30
0.0
 70
   128
 71
   16
 72
   17
 73
   23
  0
VERTEX
  8
g0
 62
   2
 10
0.0
 20
0.0
 30
0.0
 70
   128
 71
   22
 72
   16
 73
   23
  0
VERTEX
  8
g0
 62
   2
 10
0.0
 20
0.0
 30
0.0
 70
   128
 71
   17
 72
   18
 73
   24
  0
VERTEX
  8
g0
 62
   2
 10
0.0
 20
0.0
 30
0.0
 70
   128
 71
   23
 72
   17
 73
   24
  0
VERTEX
  8
g0
 62
   2
 10
0.0
 20
0.0
 30
0.0
 70
   128
 71
   18
 72
   19
 73
   25
  0
VERTEX
  8
g0
 62
   2
 10
0.0
 20
0.0
 30
0.0
 70
   128
 71
   24
 72
   18
 73
   25
  0
VERTEX
  8
g0
 62
   2
 10
0.0
 20
0.0
 30
0.0
 70
   128
 71
   25
 72
   20
 73
   26
  0
VERTEX
  8
g0
 62
   2
 10
0.0
 20
0.0
 30
0.0
 70
   128
 71
   31
 72
   25
 73
   26
  0
VERTEX
  8
g0
 62
   2
 10
0.0
 20
0.0
 30
0.0
 70
   128
 71
   20
 72
   21
 73
   27
  0
VERTEX
  8
g0
 62
   2
 10
0.0
 20
0.0
 30
0.0
 70
   128
 71
   26
 72
   20
 73
   27
  0
VERTEX
  8
g0
 62
   2
 10
0.0
 20
0.0
 30
0.0
 70
   128
 71
   21
 72
   22
 73
   28
  0
VERTEX
  8
g0
 62
   2
 10
0.0
 20
0.0
 30
0.0
 70
   128
 71
   27
 72
   21
 73
   28
  0
VERTEX
  8
g0
 62
   2
 10
0.0
 20
0.0
 30
0.0
 70
   128
 71
   22
 72
   23
 73
   29
  0
VERTEX
  8
g0
 62
   2
 10
0.0
 20
0.0
 30
0.0
 70
   128
 71
   28
 72
   22
 73
   29
  0
VERTEX
  8
g0
 62
   2
 10
0.0
 20
0.0
 30
0.0
 70
   128
 71
   23
 72
   24
 73
   30
  0
VERTEX
  8
g0
 62
   2
 10
0.0
 20
0.0
 30
0.0
 70
   128
 71
   29
 72
   23
 73
   30
  0
VERTEX
  8
g0
 62
   2
 10
0.0
 20
0.0
 30
0.0
 70
   128
 71
   24
 72
   25
 73
   31
  0
VERTEX
  8
g0
 62
   2
 10
0.0
 20
0.0
 30
0.0
 70
   128
 71
   30
 72
   24
 73
   31
  0
SEQEND
  0
ENDSEC
  0
EOF
